<svg xmlns="http://www.w3.org/2000/svg" viewBox="0 0 152.67 77.62"><defs><style>.a{fill:#fff;}</style></defs><polygon class="a" points="12.53 37.16 12.53 46.08 16.33 46.08 16.33 69.69 12.53 69.69 12.53 77.62 29.82 77.62 29.82 69.86 26.05 69.86 26.05 61.44 41.68 61.44 41.68 53.67 26.05 53.67 26.05 46.91 38.8 46.91 38.8 51.2 48.86 51.2 48.86 37.16 12.53 37.16"/><polygon class="a" points="51.2 37.16 51.2 46.08 55 46.08 55 69.69 51.2 69.69 51.2 77.62 87.53 77.62 87.53 64.58 77.43 64.58 77.59 68.87 64.72 68.87 64.72 61.44 80.35 61.44 80.35 53.67 64.72 53.67 64.72 46.91 77.47 46.91 77.47 51.2 87.53 51.2 87.53 37.16 51.2 37.16"/><polygon class="a" points="89.81 37.16 89.81 45.58 93.82 45.58 101.51 77.62 111.11 77.62 117.39 55.82 123.5 77.62 133.53 77.62 141.5 46.24 145.13 46.24 145.13 37.16 127.56 37.16 127.56 45.75 132.65 45.75 128.41 59.62 121.85 37.16 113.43 37.16 107.54 60.28 103.26 46.58 107.54 46.58 107.54 37.16 89.81 37.16"/><polygon class="a" points="76.27 0 80.08 10.9 92.4 10.9 82.43 17.63 86.24 28.53 76.27 21.8 66.29 28.53 70.1 17.63 60.13 10.9 72.46 10.9 76.27 0"/><polygon class="a" points="111.39 4.19 113.72 13.87 124.3 14.93 115.16 19.86 117.49 29.54 109.51 22.9 100.37 27.82 104.58 18.8 96.6 12.16 107.18 13.22 111.39 4.19"/><polygon class="a" points="40.31 4.29 44.93 13.11 55.45 11.56 47.79 18.57 52.41 27.39 43.05 22.89 35.38 29.9 37.26 20.12 27.91 15.62 38.43 14.07 40.31 4.29"/><polygon class="a" points="141.17 9.48 143.05 18.37 152.67 19.61 144.21 23.86 146.09 32.75 138.99 26.49 130.53 30.75 134.59 22.62 127.49 16.37 137.11 17.61 141.17 9.48"/><polygon class="a" points="11.13 10.67 15.48 18.64 25.05 17.06 18.17 23.57 22.52 31.54 13.92 27.59 7.04 34.09 8.6 25.14 0 21.2 9.57 19.61 11.13 10.67"/></svg>